# xmcd CD database file
#
# Track frame offsets:
#	150
#	6440
#	81037
#	89847
#	123362
#	137152
#	218242
#	234810
#	279487
#
# Disc length: 4372 seconds
#
# Revision: 0
# Processed by: cddbd v1.4PL0 Copyright (c) Steve Scherf et al.
# Submitted via: CDex 1.50
#
DISCID=79111209
DTITLE=Mark Dresser - Marinade
DYEAR=2000
DGENRE=Jazz
TTITLE0=Ricochet
TTITLE1=Air to Mir
TTITLE2=Bundy
TTITLE3=Spin X
TTITLE4=One for BT
TTITLE5=Althaus
TTITLE6=Frammus
TTITLE7=Marondade
TTITLE8=Subtonium X
EXTD=YEAR: 2000
EXTT0=
EXTT1=
EXTT2=
EXTT3=
EXTT4=
EXTT5=
EXTT6=
EXTT7=
EXTT8=
PLAYORDER=
